<svg width="900" height="1100" xmlns="http://www.w3.org/2000/svg" stroke="null" style="vector-effect: non-scaling-stroke;">

 <g stroke="null">
  <title stroke="null">Layer 1</title>
  <path stroke="null" id="svg_1" d="m704,948.00001a128,152.00004 0 0 1 -128,152.00004l-448,0a128,152.00004 0 0 1 -128,-152.00004l0,-532.00014a128,152.00004 0 0 1 128,-152.00004l0,76.00002a64,76.00002 0 0 0 -64,76.00002l0,532.00014a64,76.00002 0 0 0 64,76.00002l448,0a64,76.00002 0 0 0 64,-76.00002l64,0z" fill="#000000"/>
  <path stroke="null" id="svg_2" d="m324,81.09093a64,81.09093 0 0 0 -64,81.09093l0,567.63652a64,81.09093 0 0 0 64,81.09093l448,0a64,81.09093 0 0 0 64,-81.09093l0,-567.63652a64,81.09093 0 0 0 -64,-81.09093l-448,0zm0,-81.09093l448,0a128,162.18186 0 0 1 128,162.18186l0,567.63652a128,162.18186 0 0 1 -128,162.18186l-448,0a128,162.18186 0 0 1 -128,-162.18186l0,-567.63652a128,162.18186 0 0 1 128,-162.18186z" fill="#000000"/>
  <path transform="rotate(-3 441.959 -34.0007)" stroke="null" style="vector-effect: non-scaling-stroke;" stroke-width="10" d="m445.89926,155.99957c0,-7.60001 0,-19.00003 0,-38.00006c0,-15.20002 383.99624,-45.60007 383.99624,-57.00009c0,-15.20003 0,-30.40005 0,-38.00006c0,-7.60001 0,-26.60004 0,-30.40005c0,-15.20002 123.01883,-19.09816 0,-26.60004c-194.50956,-11.86151 -574.54492,-14.84961 -767.99102,-30.40005c-140.75346,-11.3146 0,-19.00003 0,-38.00006c0,-11.40001 0,-22.80004 0,-38.00006c0,-7.60001 0,-22.80003 0,-30.40004c0,-3.80001 0,-15.20003 0,-19.00003c0,-3.80001 0,-7.60001 0,-11.40003c0,-3.8 0,-7.6 0,-11.40001l0,-3.8l0,-3.80001l0,-3.8" id="svg_4" fill="none"/>
 </g>
</svg>