<?xml version="1.0" encoding="UTF-8" standalone="no" ?>
<!DOCTYPE svg PUBLIC "-//W3C//DTD SVG 1.1//EN" "http://www.w3.org/Graphics/SVG/1.1/DTD/svg11.dtd">
<svg xmlns="http://www.w3.org/2000/svg" xmlns:xlink="http://www.w3.org/1999/xlink" version="1.1" width="500" height="500" viewBox="0 0 500 500" xml:space="preserve">
<desc>Created with Fabric.js 5.3.0</desc>
<defs>
</defs>
<g transform="matrix(0.8722044485 0 0 0.8722044485 250 261.8421052632)" id="rRbIH1OuDSuJOeah11Q3V"  >
<path style="stroke: rgb(0,0,0); stroke-width: 3; stroke-dasharray: none; stroke-linecap: butt; stroke-dashoffset: 0; stroke-linejoin: miter; stroke-miterlimit: 4; fill: rgb(255,255,255); fill-rule: nonzero; opacity: 1;" vector-effect="non-scaling-stroke"  transform=" translate(0, 0)" d="M 0 -171.97803 C 94.93187 -171.97803 171.97803 -94.93186999999999 171.97803 0 C 171.97803 94.93187 94.93186999999999 171.97803 0 171.97803 C -94.93187 171.97803 -171.97803 94.93186999999999 -171.97803 0 C -171.97803 -94.93187 -94.93186999999999 -171.97803 0 -171.97803 z" stroke-linecap="round" />
</g>
<g transform="matrix(0.912 0 0 1.14 213.1106109593 284.9310693283)" id="LRw8QMJl0MWeAWv95hbtw"  >
<path style="stroke: rgb(204,204,204); stroke-width: 6; stroke-dasharray: none; stroke-linecap: butt; stroke-dashoffset: 0; stroke-linejoin: miter; stroke-miterlimit: 4; fill: rgb(255,255,255); fill-opacity: 0; fill-rule: nonzero; opacity: 1;" vector-effect="non-scaling-stroke"  transform=" translate(-0.000005, -0.000005)" d="M -65.78947 -40.70335 C -65.78947 -54.55803 -51.75017 -65.78947 -34.431819999999995 -65.78947 L 34.43183000000001 -65.78947 L 34.43183000000001 -65.78947 C 51.750180000000015 -65.78947 65.78948000000001 -54.558029999999995 65.78948000000001 -40.70334999999999 L 65.78948000000001 40.70336000000001 L 65.78948000000001 40.70336000000001 C 65.78948000000001 54.55804000000001 51.750180000000015 65.78948000000001 34.43183000000001 65.78948000000001 L -34.431819999999995 65.78948000000001 L -34.431819999999995 65.78948000000001 C -51.75017 65.78948000000001 -65.78947 54.55804000000001 -65.78947 40.70336000000001 z" stroke-linecap="round" />
</g>
<g transform="matrix(1.0476812866 0 0 1.0476812866 250 261.8421052632)" id="FKPMnOSbY1_3StiCdRh_6"  >
<path style="stroke: rgb(204,204,204); stroke-width: 0; stroke-dasharray: none; stroke-linecap: butt; stroke-dashoffset: 0; stroke-linejoin: miter; stroke-miterlimit: 4; fill: rgb(255,255,255); fill-rule: nonzero; opacity: 1;" vector-effect="non-scaling-stroke"  transform=" translate(-0.000005, -0.000005)" d="M -65.78947 -37.87736 C -65.78947 -53.292790000000004 -53.29279 -65.78947 -37.877359999999996 -65.78947 L 37.87737 -65.78947 L 37.87737 -65.78947 C 53.2928 -65.78947 65.78948 -53.29279 65.78948 -37.877359999999996 L 65.78948 37.87737 L 65.78948 37.87737 C 65.78948 53.2928 53.2928 65.78948 37.87737 65.78948 L -37.877359999999996 65.78948 L -37.877359999999996 65.78948 C -53.29279 65.78948 -65.78947 53.2928 -65.78947 37.87737 z" stroke-linecap="round" />
</g>
<g transform="matrix(0.912 0 0 1.14 261.6369279488 231.7158739969)" id="xgBhJo7Zvg0B8Sx1nIa6L"  >
<path style="stroke: rgb(204,204,204); stroke-width: 6; stroke-dasharray: none; stroke-linecap: butt; stroke-dashoffset: 0; stroke-linejoin: miter; stroke-miterlimit: 4; fill: rgb(255,255,255); fill-opacity: 0; fill-rule: nonzero; opacity: 1;" vector-effect="non-scaling-stroke"  transform=" translate(-0.000005, -0.000005)" d="M -65.78947 -40.70335 C -65.78947 -54.55803 -51.75017 -65.78947 -34.431819999999995 -65.78947 L 34.43183000000001 -65.78947 L 34.43183000000001 -65.78947 C 51.750180000000015 -65.78947 65.78948000000001 -54.558029999999995 65.78948000000001 -40.70334999999999 L 65.78948000000001 40.70336000000001 L 65.78948000000001 40.70336000000001 C 65.78948000000001 54.55804000000001 51.750180000000015 65.78948000000001 34.43183000000001 65.78948000000001 L -34.431819999999995 65.78948000000001 L -34.431819999999995 65.78948000000001 C -51.75017 65.78948000000001 -65.78947 54.55804000000001 -65.78947 40.70336000000001 z" stroke-linecap="round" />
</g>
</svg>